<?xml version="1.0" encoding="utf-8"?>
<!-- Generator: Adobe Illustrator 23.0.1, SVG Export Plug-In . SVG Version: 6.00 Build 0)  -->
<svg version="1.1"
	 id="Capa_1" xmlns:cc="http://creativecommons.org/ns#" xmlns:dc="http://purl.org/dc/elements/1.1/" xmlns:inkscape="http://www.inkscape.org/namespaces/inkscape" xmlns:rdf="http://www.w3.org/1999/02/22-rdf-syntax-ns#" xmlns:sodipodi="http://sodipodi.sourceforge.net/DTD/sodipodi-0.dtd" xmlns:svg="http://www.w3.org/2000/svg"
	 xmlns="http://www.w3.org/2000/svg" xmlns:xlink="http://www.w3.org/1999/xlink" x="0px" y="0px" width="2500px"
	 height="906.105px" viewBox="0 0 2500 906.105" enable-background="new 0 0 2500 906.105" xml:space="preserve">
<title  id="title4878">Enel Group</title>
<sodipodi:namedview  bordercolor="#666666" borderopacity="1" fit-margin-bottom="248.732" fit-margin-left="248.732" fit-margin-right="248.732" fit-margin-top="248.732" gridtolerance="10" guidetolerance="10" id="namedview4599" inkscape:current-layer="Capa_1" inkscape:cx="1682.463" inkscape:cy="444.67543" inkscape:pageopacity="0" inkscape:pageshadow="2" inkscape:showpageshadow="false" inkscape:window-height="715" inkscape:window-maximized="1" inkscape:window-width="1366" inkscape:window-x="-8" inkscape:window-y="-8" inkscape:zoom="0.18620446" objecttolerance="10" pagecolor="#ffffff" showgrid="false">
	</sodipodi:namedview>
<g>
	<path d="M346.443,213.221C155.112,213.221,0,368.333,0,559.676c0,191.318,155.112,346.429,346.443,346.429
		c111.967,0,211.535-53.124,274.846-135.527l-82.027-62.949c-44.425,57.809-114.273,95.089-192.819,95.089
		c-134.22,0-243.043-108.823-243.043-243.043c0-134.245,108.823-243.055,243.043-243.055c113.612,0,209.71,77.95,236.349,183.291
		H326.573v103.4h361.871v-103.4C660.121,337.06,517.41,213.221,346.443,213.221"/>
	<path d="M1856.479,213.221c-191.318,0-346.43,155.112-346.43,346.455c0,191.318,155.112,346.429,346.43,346.429
		c111.967,0,211.535-53.124,274.858-135.527l-82.027-62.949c-44.425,57.809-114.273,95.089-192.831,95.089
		c-134.22,0-243.043-108.823-243.043-243.043c0-134.245,108.823-243.055,243.043-243.055c113.625,0,209.723,77.95,236.362,183.291
		h-256.219v103.4h361.872v-103.4h-0.014C2170.171,337.06,2027.447,213.221,1856.479,213.221"/>
	<path d="M2405.273,672.833V0h-103.4v672.833c0,109.108,50.87,174.827,139.087,232.766l59.04-84.773
		C2439.639,779.663,2405.273,747.457,2405.273,672.833"/>
	<path d="M1125.453,213.329c-90.042,0-171.048,36.038-230.215,94.403v-66.301H791.851v361.885h103.387v-85.64
		c15.585-83.011,89.147-200.948,230.124-200.948c101.057,0,184.003,79.789,184.003,182.968v34.018v361.884h103.387V533.714v-34.018
		C1412.752,339.808,1283.633,213.329,1125.453,213.329"/>
</g>
</svg>
