<svg viewBox="0 0 63 51" fill="currentColor" xmlns="http://www.w3.org/2000/svg">
<path d="M62.9321 51H24.1268L24.1268 0H43.7833C47.9902 0 51.4235 0.749511 54.083 2.24853C56.6942 3.6992 58.7252 5.68178 60.1758 8.19627C61.6265 10.7108 62.3518 13.4912 62.3518 16.5376C62.3518 20.3093 61.1913 23.6942 58.8702 26.6923C56.5492 29.642 53.6237 31.6004 50.0937 32.5675L62.9321 51ZM28.6964 2.68373L48.4254 30.2464C51.6653 29.5694 54.349 27.9495 56.4766 25.3867C58.6043 22.8238 59.6681 19.8741 59.6681 16.5376C59.6681 13.878 59.0153 11.4603 57.7097 9.28427C56.4041 7.10827 54.5666 5.44 52.1972 4.27947C50.0695 3.21564 47.2891 2.68373 43.8558 2.68373H28.6964ZM26.8105 4.42453V30.464H45.4516L26.8105 4.42453ZM26.8105 48.3163H57.8548L47.2649 33.0752L45.0164 33.1477H26.8105L26.8105 48.3163Z" fill="currentColor"/>
<path d="M48.0718 51H0.471832L24.2718 0L48.0718 51ZM4.68037 48.346H43.8633L24.2718 6.31224L4.68037 48.346Z" fill="currentColor"/>
</svg>
