<svg width="100" height="100" viewBox="0 0 100 100" fill="none" xmlns="http://www.w3.org/2000/svg">
<rect width="100" height="100" rx="8" fill="white"/>
<path d="M94.4039 86H38.859L38.859 13H66.9949C73.0166 13 77.9308 14.0728 81.7376 16.2185C85.4752 18.2949 88.3822 21.1327 90.4587 24.7319C92.5351 28.3311 93.5734 32.3109 93.5734 36.6715C93.5734 42.0702 91.9122 46.9153 88.5899 51.2066C85.2676 55.4287 81.0801 58.2319 76.0274 59.6162L94.4039 86ZM45.3998 16.8414L73.6395 56.2939C78.2769 55.3249 82.1183 53.0062 85.1638 49.3378C88.2092 45.6694 89.7319 41.4473 89.7319 36.6715C89.7319 32.8647 88.7975 29.4039 86.9287 26.2892C85.0599 23.1746 82.4298 20.7867 79.0382 19.1255C75.9928 17.6028 72.0129 16.8414 67.0987 16.8414H45.3998ZM42.7005 19.3332V56.6053H69.3828L42.7005 19.3332ZM42.7005 82.1586H87.1364L71.9783 60.3429L68.7598 60.4468H42.7005L42.7005 82.1586Z" fill="black"/>
<path d="M73.1333 86H5L39.0667 13L73.1333 86ZM11.024 82.2011H67.1094L39.0667 22.0352L11.024 82.2011Z" fill="black"/>
</svg>
